<?xml version="1.0" encoding="utf-8"?>
<svg version="1.0" width="556.000000pt" height="449.000000pt" viewBox="0 0 556.000000 449.000000" preserveAspectRatio="xMidYMid meet" xmlns="http://www.w3.org/2000/svg">
  <g transform="translate(0.000000,449.000000) scale(0.100000,-0.100000)" fill="#000000" stroke="none">
    <path d="M1880 3850 c-8 -5 -10 -10 -5 -10 6 0 17 5 25 10 8 5 11 10 5 10 -5 0 -17 -5 -25 -10z"/>
    <path d="M1837 3833 c-16 -15 -5 -42 27 -67 19 -14 38 -26 43 -26 4 0 -9 12 -30 27 -37 26 -48 57 -24 66 6 3 7 6 1 6 -6 1 -14 -2 -17 -6z"/>
    <path d="M1942 3800 c0 -19 2 -27 5 -17 2 9 2 25 0 35 -3 9 -5 1 -5 -18z"/>
    <path d="M2925 3800 c3 -5 8 -10 11 -10 2 0 4 5 4 10 0 6 -5 10 -11 10 -5 0 -7 -4 -4 -10z"/>
    <path d="M1925 3750 c-3 -5 -1 -10 4 -10 6 0 11 5 11 10 0 6 -2 10 -4 10 -3 0 -8 -4 -11 -10z"/>
    <path d="M2730 3740 c0 -5 5 -10 11 -10 5 0 7 5 4 10 -3 6 -8 10 -11 10 -2 0 -4 -4 -4 -10z"/>
    <path d="M2860 3740 c0 -5 5 -10 10 -10 6 0 10 5 10 10 0 6 -4 10 -10 10 -5 0 -10 -4 -10 -10z"/>
    <path d="M2990 3734 c0 -8 5 -12 10 -9 6 3 10 10 10 16 0 5 -4 9 -10 9 -5 0 -10 -7 -10 -16z"/>
    <path d="M3120 3734 c0 -8 5 -12 10 -9 6 3 10 10 10 16 0 5 -4 9 -10 9 -5 0 -10 -7 -10 -16z"/>
    <path d="M3250 3740 c0 -5 5 -10 11 -10 5 0 7 5 4 10 -3 6 -8 10 -11 10 -2 0 -4 -4 -4 -10z"/>
    <path d="M2795 3679 c-10 -15 3 -25 16 -12 7 7 7 13 1 17 -6 3 -14 1 -17 -5z"/>
    <path d="M2926 3683 c-11 -11 -6 -23 9 -23 8 0 15 4 15 9 0 13 -16 22 -24 14z"/>
    <path d="M3056 3683 c-11 -11 -6 -23 9 -23 8 0 15 4 15 9 0 13 -16 22 -24 14z"/>
    <path d="M3186 3683 c-11 -11 -6 -23 9 -23 8 0 15 4 15 9 0 13 -16 22 -24 14z"/>
    <path d="M2411 3674 c-1 -7 -32 -14 -78 -19 -347 -31 -647 -158 -834 -352 -113 -117 -176 -226 -225 -388 -25 -83 -27 -105 -28 -270 -1 -99 2 -205 6 -235 14 -111 82 -349 133 -465 7 -16 25 -57 39 -89 20 -46 24 -62 14 -73 -9 -11 -7 -15 8 -19 27 -7 139 -221 125 -238 -13 -15 -5 -26 19 -26 9 0 23 -12 31 -27 50 -98 217 -309 330 -418 413 -399 926 -474 1434 -211 66 34 126 61 133 58 6 -2 12 2 12 10 0 8 35 38 78 68 99 70 349 321 427 427 33 46 66 83 73 83 6 0 12 9 12 21 0 11 18 50 41 87 143 236 225 493 236 742 9 217 -35 390 -137 543 -57 86 -203 229 -321 317 -46 34 -83 69 -81 76 2 9 -5 13 -20 12 -19 -1 -125 55 -228 121 -14 8 -28 14 -33 13 -4 -1 -29 8 -55 21 -26 13 -79 36 -118 52 -48 18 -71 32 -70 42 0 9 -5 18 -11 20 -7 3 -13 -3 -13 -12 0 -11 -5 -15 -16 -11 -8 3 -49 16 -90 27 -54 16 -71 25 -64 34 11 14 3 25 -18 25 -8 0 -12 -6 -8 -15 6 -18 -6 -19 -54 -5 -45 14 -182 37 -289 49 -49 5 -88 15 -93 23 -7 10 -11 10 -15 1 -3 -8 -25 -13 -58 -13 -33 0 -56 5 -59 13 -5 10 -7 10 -12 0 -3 -8 -26 -13 -59 -13 -33 0 -55 5 -58 13 -4 7 -6 8 -6 1z m137 -144 c63 -6 154 -19 204 -30 350 -76 745 -296 1002 -558 48 -49 59 -67 61 -97 3 -45 39 -84 86 -94 28 -6 43 -21 91 -91 74 -110 144 -252 163 -332 19 -81 19 -235 0 -316 -113 -479 -641 -940 -1218 -1064 -152 -32 -376 -30 -508 5 -451 119 -736 525 -834 1191 -80 547 5 945 253 1178 135 127 289 189 522 211 19 2 42 4 50 5 8 1 66 -3 128 -8z m1331 -720 c30 -36 37 -50 26 -50 -30 0 -56 21 -71 55 -26 63 -11 62 45 -5z" style="fill: rgb(14, 148, 136);"/>
    <path d="M3127 2835 c-35 -20 -47 -51 -47 -118 0 -58 8 -74 82 -155 53 -59 61 -79 56 -138 -3 -34 -6 -39 -28 -39 -23 0 -26 5 -34 63 -9 62 -10 62 -43 62 l-33 0 0 -54 c0 -99 35 -146 109 -146 72 0 111 49 111 137 -1 63 -25 116 -88 184 -55 60 -70 96 -52 128 24 45 60 13 60 -53 0 -35 1 -36 36 -36 l36 0 -4 65 c-3 49 -9 71 -25 86 -27 28 -98 35 -136 14z" style="fill: rgb(227, 227, 227);"/>
    <path d="M2120 2580 l0 -260 94 0 94 0 -2 33 c-2 31 -4 32 -54 35 l-52 3 0 225 0 224 -40 0 -40 0 0 -260z" style="fill: rgb(227, 227, 227);"/>
    <path d="M2395 2808 c-12 -74 -65 -456 -65 -472 0 -14 8 -17 38 -14 36 3 37 4 40 46 l3 42 43 0 44 0 6 -45 c7 -44 8 -45 46 -45 31 0 37 3 34 18 -5 23 -74 482 -74 493 0 5 -25 9 -55 9 -53 0 -54 0 -60 -32z m75 -185 c6 -54 14 -108 17 -120 5 -20 1 -23 -29 -23 l-34 0 15 120 c8 66 15 120 16 120 2 0 8 -44 15 -97z" style="fill: rgb(227, 227, 227);"/>
    <path d="M2600 2805 c0 -32 2 -35 30 -35 l30 0 0 -225 0 -225 40 0 40 0 0 225 0 225 30 0 c28 0 30 3 30 35 l0 35 -100 0 -100 0 0 -35z" style="fill: rgb(227, 227, 227);"/>
    <path d="M2840 2580 l0 -260 96 0 95 0 -3 33 c-3 31 -5 32 -50 35 l-48 3 0 80 0 79 45 0 c45 0 45 0 45 35 0 35 0 35 -45 35 l-45 0 0 75 0 75 45 0 c45 0 45 0 45 35 l0 35 -90 0 -90 0 0 -260z" style="fill: rgb(227, 227, 227);"/>
    <path d="M3320 2805 c0 -32 2 -35 30 -35 l30 0 0 -225 0 -225 45 0 45 0 0 225 0 225 25 0 c22 0 25 4 25 35 l0 35 -100 0 -100 0 0 -35z" style="fill: rgb(227, 227, 227);"/>
    <path d="M3330 2187 c-45 -15 -70 -64 -70 -135 0 -71 19 -112 84 -180 61 -64 86 -113 86 -166 0 -32 -20 -66 -40 -66 -26 0 -40 34 -40 96 l0 64 -45 0 -45 0 0 -57 c0 -117 34 -171 113 -180 96 -11 147 47 147 165 -1 76 -23 123 -104 212 -60 67 -66 78 -66 116 0 32 5 46 19 53 30 17 50 -7 53 -64 l3 -50 43 -3 42 -3 0 56 c0 77 -21 122 -64 140 -42 18 -69 18 -116 2z" style="fill: rgb(227, 227, 227);"/>
    <path d="M2120 1880 l0 -311 43 3 42 3 -2 178 c-2 97 -1 177 1 177 2 0 31 -81 66 -180 l62 -180 34 0 34 0 0 311 0 310 -42 -3 -43 -3 2 -175 3 -175 -63 175 -63 175 -37 3 -37 3 0 -311z" style="fill: rgb(227, 227, 227);"/>
    <path d="M2490 1880 l0 -310 110 0 110 0 0 40 0 40 -60 0 -60 0 0 100 0 100 55 0 55 0 0 40 0 40 -55 0 -55 0 0 90 0 90 55 0 55 0 0 40 0 40 -105 0 -105 0 0 -310z" style="fill: rgb(227, 227, 227);"/>
    <path d="M2760 2170 c0 -10 16 -148 35 -304 19 -157 35 -288 35 -291 0 -3 23 -5 50 -5 28 0 50 5 50 10 0 17 51 374 54 377 1 2 12 -77 25 -175 12 -97 25 -185 27 -195 5 -15 14 -17 52 -15 l47 3 32 280 c42 363 42 335 -7 335 -47 0 -42 15 -64 -234 -9 -93 -17 -170 -19 -172 -1 -2 -13 79 -26 179 -30 241 -25 227 -70 227 l-37 0 -23 -177 c-34 -261 -35 -262 -55 -58 -24 250 -20 235 -67 235 -32 0 -39 -3 -39 -20z" style="fill: rgb(227, 227, 227);"/>
    <path d="M3310 3670 c0 -5 4 -10 9 -10 6 0 13 5 16 10 3 6 -1 10 -9 10 -9 0 -16 -4 -16 -10z"/>
    <path d="M3445 3670 c3 -5 8 -10 11 -10 2 0 4 5 4 10 0 6 -5 10 -11 10 -5 0 -7 -4 -4 -10z"/>
    <path d="M3247 3614 c-8 -8 1 -24 14 -24 5 0 9 7 9 15 0 15 -12 20 -23 9z"/>
    <path d="M3377 3614 c-8 -8 1 -24 14 -24 5 0 9 7 9 15 0 15 -12 20 -23 9z"/>
    <path d="M3510 3610 c0 -5 5 -10 10 -10 6 0 10 5 10 10 0 6 -4 10 -10 10 -5 0 -10 -4 -10 -10z"/>
    <path d="M3446 3553 c-11 -11 -6 -23 9 -23 8 0 15 4 15 9 0 13 -16 22 -24 14z"/>
    <path d="M3570 3540 c0 -5 7 -10 15 -10 8 0 15 5 15 10 0 6 -7 10 -15 10 -8 0 -15 -4 -15 -10z"/>
    <path d="M3505 3481 c-7 -12 12 -24 25 -16 11 7 4 25 -10 25 -5 0 -11 -4 -15 -9z"/>
    <path d="M3640 3474 c0 -8 5 -12 10 -9 6 3 10 10 10 16 0 5 -4 9 -10 9 -5 0 -10 -7 -10 -16z"/>
    <path d="M3700 3410 c0 -5 7 -10 15 -10 8 0 15 5 15 10 0 6 -7 10 -15 10 -8 0 -15 -4 -15 -10z"/>
    <path d="M3770 3344 c0 -8 5 -12 10 -9 6 3 10 10 10 16 0 5 -4 9 -10 9 -5 0 -10 -7 -10 -16z"/>
    <path d="M1073 2713 c9 -2 25 -2 35 0 9 3 1 5 -18 5 -19 0 -27 -2 -17 -5z"/>
    <path d="M1003 2703 c9 -2 25 -2 35 0 9 3 1 5 -18 5 -19 0 -27 -2 -17 -5z"/>
    <path d="M933 2693 c9 -2 25 -2 35 0 9 3 1 5 -18 5 -19 0 -27 -2 -17 -5z"/>
    <path d="M863 2683 c9 -2 25 -2 35 0 9 3 1 5 -18 5 -19 0 -27 -2 -17 -5z"/>
    <path d="M788 2673 c12 -2 30 -2 40 0 9 3 -1 5 -23 4 -22 0 -30 -2 -17 -4z"/>
    <path d="M4540 2641 c0 -5 5 -13 10 -16 6 -3 10 -2 10 4 0 5 -4 13 -10 16 -5 3 -10 2 -10 -4z"/>
    <path d="M1033 2633 c9 -2 23 -2 30 0 6 3 -1 5 -18 5 -16 0 -22 -2 -12 -5z"/>
    <path d="M898 2613 c7 -3 16 -2 19 1 4 3 -2 6 -13 5 -11 0 -14 -3 -6 -6z"/>
    <path d="M4595 2580 c3 -5 11 -10 16 -10 6 0 7 5 4 10 -3 6 -11 10 -16 10 -6 0 -7 -4 -4 -10z"/>
    <path d="M4575 2140 l-40 -7 35 -1 c19 -1 42 3 50 8 16 11 14 11 -45 0z"/>
    <path d="M1250 2099 c0 -5 5 -7 10 -4 6 3 10 8 10 11 0 2 -4 4 -10 4 -5 0 -10 -5 -10 -11z"/>
    <path d="M4858 2103 c7 -3 16 -2 19 1 4 3 -2 6 -13 5 -11 0 -14 -3 -6 -6z"/>
    <path d="M4793 2093 c9 -2 25 -2 35 0 9 3 1 5 -18 5 -19 0 -27 -2 -17 -5z"/>
    <path d="M4723 2083 c9 -2 25 -2 35 0 9 3 1 5 -18 5 -19 0 -27 -2 -17 -5z"/>
    <path d="M4648 2073 c12 -2 30 -2 40 0 9 3 -1 5 -23 4 -22 0 -30 -2 -17 -4z"/>
    <path d="M4573 2063 c9 -2 25 -2 35 0 9 3 1 5 -18 5 -19 0 -27 -2 -17 -5z"/>
    <path d="M4508 2053 c6 -2 18 -2 25 0 6 3 1 5 -13 5 -14 0 -19 -2 -12 -5z"/>
    <path d="M1312 2041 c2 -7 7 -12 11 -12 12 1 9 15 -3 20 -7 2 -11 -2 -8 -8z"/>
    <path d="M1250 1969 c0 -5 5 -7 10 -4 6 3 10 8 10 11 0 2 -4 4 -10 4 -5 0 -10 -5 -10 -11z"/>
    <path d="M1310 1911 c0 -6 5 -13 10 -16 6 -3 10 1 10 9 0 9 -4 16 -10 16 -5 0 -10 -4 -10 -9z"/>
    <path d="M1376 1853 c-11 -11 -6 -23 9 -23 8 0 15 4 15 9 0 13 -16 22 -24 14z"/>
    <path d="M4295 1830 c-3 -5 -1 -10 4 -10 6 0 11 5 11 10 0 6 -2 10 -4 10 -3 0 -8 -4 -11 -10z"/>
    <path d="M1310 1780 c0 -5 5 -10 10 -10 6 0 10 5 10 10 0 6 -4 10 -10 10 -5 0 -10 -4 -10 -10z"/>
    <path d="M1376 1723 c-11 -11 -6 -23 9 -23 8 0 15 4 15 9 0 13 -16 22 -24 14z"/>
    <path d="M4295 1700 c-3 -5 -1 -10 4 -10 6 0 11 5 11 10 0 6 -2 10 -4 10 -3 0 -8 -4 -11 -10z"/>
    <path d="M1310 1650 c0 -5 5 -10 10 -10 6 0 10 5 10 10 0 6 -4 10 -10 10 -5 0 -10 -4 -10 -10z"/>
    <path d="M1435 1651 c-7 -12 12 -24 25 -16 11 7 4 25 -10 25 -5 0 -11 -4 -15 -9z"/>
    <path d="M4230 1630 c0 -5 5 -10 10 -10 6 0 10 5 10 10 0 6 -4 10 -10 10 -5 0 -10 -4 -10 -10z"/>
    <path d="M1505 1590 c-8 -13 4 -32 16 -25 12 8 12 35 0 35 -6 0 -13 -4 -16 -10z"/>
    <path d="M1375 1580 c3 -5 10 -10 16 -10 5 0 9 5 9 10 0 6 -7 10 -16 10 -8 0 -12 -4 -9 -10z"/>
    <path d="M4160 1565 c0 -9 5 -15 11 -13 6 2 11 8 11 13 0 5 -5 11 -11 13 -6 2 -11 -4 -11 -13z"/>
    <path d="M1440 1515 c0 -9 5 -15 11 -13 6 2 11 8 11 13 0 5 -5 11 -11 13 -6 2 -11 -4 -11 -13z"/>
    <path d="M4230 1500 c0 -5 5 -10 10 -10 6 0 10 5 10 10 0 6 -4 10 -10 10 -5 0 -10 -4 -10 -10z"/>
    <path d="M1506 1463 c-11 -11 -6 -23 9 -23 8 0 15 4 15 9 0 13 -16 22 -24 14z"/>
    <path d="M4162 1441 c2 -7 7 -12 11 -12 12 1 9 15 -3 20 -7 2 -11 -2 -8 -8z"/>
    <path d="M1445 1390 c-3 -5 -1 -10 4 -10 6 0 11 5 11 10 0 6 -2 10 -4 10 -3 0 -8 -4 -11 -10z"/>
    <path d="M1570 1385 c0 -9 5 -15 11 -13 6 2 11 8 11 13 0 5 -5 11 -11 13 -6 2 -11 -4 -11 -13z"/>
    <path d="M4090 1370 c0 -5 7 -10 15 -10 8 0 15 5 15 10 0 6 -7 10 -15 10 -8 0 -15 -4 -15 -10z"/>
    <path d="M1636 1333 c-11 -11 -6 -23 9 -23 8 0 15 4 15 9 0 13 -16 22 -24 14z"/>
    <path d="M1510 1319 c0 -5 5 -7 10 -4 6 3 10 8 10 11 0 2 -4 4 -10 4 -5 0 -10 -5 -10 -11z"/>
    <path d="M4030 1305 c0 -9 5 -15 11 -13 6 2 11 8 11 13 0 5 -5 11 -11 13 -6 2 -11 -4 -11 -13z"/>
    <path d="M1570 1260 c0 -5 5 -10 10 -10 6 0 10 5 10 10 0 6 -4 10 -10 10 -5 0 -10 -4 -10 -10z"/>
    <path d="M1700 1255 c0 -9 5 -15 11 -13 6 2 11 8 11 13 0 5 -5 11 -11 13 -6 2 -11 -4 -11 -13z"/>
    <path d="M3966 1253 c-11 -11 -6 -23 9 -23 8 0 15 4 15 9 0 13 -16 22 -24 14z"/>
    <path d="M4100 1240 c0 -5 5 -10 10 -10 6 0 10 5 10 10 0 6 -4 10 -10 10 -5 0 -10 -4 -10 -10z"/>
    <path d="M1766 1203 c-11 -11 -6 -23 9 -23 8 0 15 4 15 9 0 13 -16 22 -24 14z"/>
    <path d="M1640 1190 c0 -5 5 -10 10 -10 6 0 10 5 10 10 0 6 -4 10 -10 10 -5 0 -10 -4 -10 -10z"/>
    <path d="M3900 1175 c0 -9 5 -15 11 -13 6 2 11 8 11 13 0 5 -5 11 -11 13 -6 2 -11 -4 -11 -13z"/>
    <path d="M4035 1181 c-3 -5 -1 -12 5 -16 5 -3 10 1 10 9 0 18 -6 21 -15 7z"/>
    <path d="M1705 1130 c-3 -5 -1 -10 4 -10 6 0 11 5 11 10 0 6 -2 10 -4 10 -3 0 -8 -4 -11 -10z"/>
    <path d="M1832 1131 c4 -13 18 -16 19 -4 0 4 -5 9 -11 12 -7 2 -11 -2 -8 -8z"/>
    <path d="M3836 1123 c-11 -11 -6 -23 9 -23 8 0 15 4 15 9 0 13 -16 22 -24 14z"/>
    <path d="M3970 1110 c0 -5 5 -10 10 -10 6 0 10 5 10 10 0 6 -4 10 -10 10 -5 0 -10 -4 -10 -10z"/>
    <path d="M1900 1060 c0 -5 5 -10 10 -10 6 0 10 5 10 10 0 6 -4 10 -10 10 -5 0 -10 -4 -10 -10z"/>
    <path d="M3770 1045 c0 -9 5 -15 11 -13 6 2 11 8 11 13 0 5 -5 11 -11 13 -6 2 -11 -4 -11 -13z"/>
    <path d="M3905 1051 c-3 -5 -1 -12 5 -16 5 -3 10 1 10 9 0 18 -6 21 -15 7z"/>
    <path d="M1965 1000 c-3 -5 -1 -10 4 -10 6 0 11 5 11 10 0 6 -2 10 -4 10 -3 0 -8 -4 -11 -10z"/>
    <path d="M3700 980 c0 -5 7 -10 15 -10 8 0 15 5 15 10 0 6 -7 10 -15 10 -8 0 -15 -4 -15 -10z"/>
    <path d="M3840 980 c0 -5 5 -10 10 -10 6 0 10 5 10 10 0 6 -4 10 -10 10 -5 0 -10 -4 -10 -10z"/>
    <path d="M3640 921 c0 -6 5 -13 10 -16 6 -3 10 1 10 9 0 9 -4 16 -10 16 -5 0 -10 -4 -10 -9z"/>
    <path d="M3440 850 c0 -5 7 -10 15 -10 8 0 15 5 15 10 0 6 -7 10 -15 10 -8 0 -15 -4 -15 -10z"/>
  </g>
</svg>